<?xml version="1.0" encoding="UTF-8"?>
<!DOCTYPE svg PUBLIC "-//W3C//DTD SVG 1.1//EN" "http://www.w3.org/Graphics/SVG/1.1/DTD/svg11.dtd">
<!-- Creator: CorelDRAW -->
<svg xmlns="http://www.w3.org/2000/svg" xml:space="preserve" width="1.70666in" height="1.70666in" version="1.1" style="shape-rendering:geometricPrecision; text-rendering:geometricPrecision; image-rendering:optimizeQuality; fill-rule:evenodd; clip-rule:evenodd"
viewBox="0 0 1707 1707"
 xmlns:xlink="http://www.w3.org/1999/xlink">
 <defs>
  <style type="text/css">
   <![CDATA[
    .fil0 {fill:black}
   ]]>
  </style>
 </defs>
 <g id="Layer_x0020_1">
  <metadata id="CorelCorpID_0Corel-Layer"/>
  <path class="fil0" d="M1274 1644c-7,0 -15,-1 -22,-3 -21,-6 -39,-19 -50,-39 -11,-19 -13,-41 -7,-63l87 -308 -199 -205c-21,2 -43,-1 -62,-8l-330 564c-14,25 -42,41 -71,41 -15,0 -29,-4 -42,-12 -19,-11 -33,-29 -38,-50 -6,-22 -3,-44 8,-63 97,-165 193,-334 287,-497 75,-132 153,-268 231,-402l-135 7 -130 230c-15,26 -42,42 -72,42 -14,0 -28,-3 -41,-10 -39,-23 -53,-73 -31,-113l153 -270c14,-25 39,-41 68,-42 64,-3 118,-7 165,-10 71,-4 122,-7 164,-7 127,0 160,33 267,142 46,48 111,114 205,200 34,30 37,82 6,116 -15,17 -38,27 -61,27 -20,0 -40,-7 -55,-21l-220 -199 -135 232 218 225c22,21 31,53 22,82l-100 354c-10,36 -43,60 -80,60z"/>
  <path class="fil0" d="M1429 415c-98,0 -177,-79 -177,-176 0,-98 79,-177 177,-177 97,0 176,79 176,177 0,97 -79,176 -176,176z"/>
  <path class="fil0" d="M645 278l-472 0c-11,0 -20,-9 -20,-20 0,-11 9,-20 20,-20l472 0c11,0 20,9 20,20 0,11 -9,20 -20,20z"/>
  <path class="fil0" d="M568 486l-471 0c-11,0 -20,-9 -20,-20 0,-11 9,-20 20,-20l471 0c11,0 20,9 20,20 0,11 -9,20 -20,20z"/>
  <path class="fil0" d="M492 694l-472 0c-11,0 -20,-9 -20,-20 0,-11 9,-20 20,-20l472 0c11,0 20,9 20,20 0,11 -9,20 -20,20z"/>
  <path class="fil0" d="M568 902l-471 0c-11,0 -20,-9 -20,-20 0,-11 9,-20 20,-20l471 0c11,0 20,9 20,20 0,11 -9,20 -20,20z"/>
  <path class="fil0" d="M645 1110l-472 0c-11,0 -20,-9 -20,-20 0,-11 9,-20 20,-20l472 0c11,0 20,9 20,20 0,11 -9,20 -20,20z"/>
 </g>
</svg>
