<?xml version="1.0" encoding="UTF-8" standalone="no"?> <svg width="64" height="64" viewBox="0 0 64 64" fill="none" xmlns="http://www.w3.org/2000/svg">
<path d="M55 6.75H48.38V4C48.38 3.66848 48.2483 3.35054 48.0139 3.11612C47.7795 2.8817 47.4615 2.75 47.13 2.75C46.7985 2.75 46.4805 2.8817 46.2461 3.11612C46.0117 3.35054 45.88 3.66848 45.88 4V6.75H33.25V4C33.25 3.66848 33.1183 3.35054 32.8839 3.11612C32.6495 2.8817 32.3315 2.75 32 2.75C31.6685 2.75 31.3505 2.8817 31.1161 3.11612C30.8817 3.35054 30.75 3.66848 30.75 4V6.75H18.12V4C18.12 3.66848 17.9883 3.35054 17.7539 3.11612C17.5195 2.8817 17.2015 2.75 16.87 2.75C16.5385 2.75 16.2205 2.8817 15.9861 3.11612C15.7517 3.35054 15.62 3.66848 15.62 4V6.75H9C7.87364 6.75264 6.79417 7.20126 5.99771 7.99771C5.20126 8.79417 4.75264 9.87364 4.75 11V57C4.75264 58.1264 5.20126 59.2058 5.99771 60.0023C6.79417 60.7987 7.87364 61.2474 9 61.25H48.71C51.5046 61.2474 54.1839 60.136 56.16 58.16C58.136 56.1839 59.2474 53.5046 59.25 50.71V11C59.2474 9.87364 58.7987 8.79417 58.0023 7.99771C57.2058 7.20126 56.1264 6.75264 55 6.75V6.75ZM47.46 31.38L31.66 49.71C31.3154 50.1057 30.8918 50.4249 30.4165 50.6471C29.9412 50.8692 29.4246 50.9895 28.9 51H28.81C28.2997 50.9983 27.795 50.8938 27.326 50.6928C26.8569 50.4918 26.4332 50.1983 26.08 49.83L16.66 40C16.1455 39.4602 15.8027 38.78 15.6748 38.0454C15.5469 37.3107 15.6398 36.5546 15.9417 35.8728C16.2435 35.1909 16.7408 34.6139 17.3706 34.2147C18.0005 33.8155 18.7345 33.612 19.48 33.63C19.9757 33.6398 20.4645 33.7483 20.9178 33.9492C21.3711 34.1501 21.7798 34.4393 22.12 34.8L27.7 40.65C27.8225 40.7776 27.9702 40.8781 28.1338 40.9453C28.2974 41.0125 28.4732 41.0447 28.65 41.04C28.8274 41.0368 29.002 40.996 29.1624 40.9201C29.3227 40.8443 29.4651 40.7351 29.58 40.6L41.76 26.46C42.0831 26.0857 42.4767 25.7788 42.9183 25.5566C43.36 25.3345 43.8411 25.2015 44.3342 25.1653C44.8273 25.129 45.3227 25.1903 45.7921 25.3455C46.2615 25.5008 46.6957 25.7469 47.07 26.07C47.4443 26.3931 47.7512 26.7867 47.9734 27.2283C48.1955 27.67 48.3285 28.1511 48.3647 28.6442C48.401 29.1373 48.3397 29.6327 48.1845 30.1021C48.0292 30.5715 47.7831 31.0057 47.46 31.38V31.38ZM49.35 58.72V51.35H56.72C56.565 53.2529 55.7388 55.0388 54.3888 56.3888C53.0388 57.7388 51.2529 58.565 49.35 58.72V58.72ZM56.75 16.5H7.25V11C7.25263 10.5367 7.43784 10.0931 7.76546 9.76546C8.09309 9.43784 8.53668 9.25263 9 9.25H15.62V12C15.62 12.3315 15.7517 12.6495 15.9861 12.8839C16.2205 13.1183 16.5385 13.25 16.87 13.25C17.2015 13.25 17.5195 13.1183 17.7539 12.8839C17.9883 12.6495 18.12 12.3315 18.12 12V9.25H30.75V12C30.75 12.3315 30.8817 12.6495 31.1161 12.8839C31.3505 13.1183 31.6685 13.25 32 13.25C32.3315 13.25 32.6495 13.1183 32.8839 12.8839C33.1183 12.6495 33.25 12.3315 33.25 12V9.25H45.88V12C45.88 12.3315 46.0117 12.6495 46.2461 12.8839C46.4805 13.1183 46.7985 13.25 47.13 13.25C47.4615 13.25 47.7795 13.1183 48.0139 12.8839C48.2483 12.6495 48.38 12.3315 48.38 12V9.25H55C55.4633 9.25263 55.9069 9.43784 56.2345 9.76546C56.5622 10.0931 56.7474 10.5367 56.75 11V16.5Z" fill="black"/>
</svg>
